PathFileType	4	(X/Y/Z)	SUBJ94_1_walk_RCNL2025.trc
DataRate	CameraRate	NumFrames	NumMarkers	Units	OrigDataRate	OrigDataStartFrame	OrigNumFrames
100	100	11	25	mm	100	144	382
Frame#	Time	R_Shoulder			L_Shoulder			C7			J_Notch			R_Elbow			L_Elbow			R_Wrist			L_Wrist			R_Asis			L_Asis			Sacral			Thoracic			Sternum			R_Thigh_Lateral			R_Knee_Lateral			R_Shank_Lateral			R_Ankle_Lateral			R_Heel			R_Toe			L_Thigh_Lateral			L_Knee_Lateral			L_Shank_Lateral			L_Ankle_Lateral			L_Heel			L_Toe		
		X1	Y1	Z1	X2	Y2	Z2	X3	Y3	Z3	X4	Y4	Z4	X5	Y5	Z5	X6	Y6	Z6	X7	Y7	Z7	X8	Y8	Z8	X9	Y9	Z9	X10	Y10	Z10	X11	Y11	Z11	X12	Y12	Z12	X13	Y13	Z13	X14	Y14	Z14	X15	Y15	Z15	X16	Y16	Z16	X17	Y17	Z17	X18	Y18	Z18	X19	Y19	Z19	X20	Y20	Z20	X21	Y21	Z21	X22	Y22	Z22	X23	Y23	Z23	X24	Y24	Z24	X25	Y25	Z25
144	1.43000000	-1049.081421	1273.672607	329.186798	-1039.018555	1263.786743	-50.052082	-1100.437988	1349.501831	133.358871	-987.760437	1257.972656	137.668060	-1111.603516	1003.119080	429.896576	-1095.253296	980.403015	-106.864799	-1007.699249	802.111694	447.669968	-955.195221	795.521484	-128.766815	-1000.090576	881.896912	277.888855	-974.450989	873.596558	53.853939	-1175.277954	931.930847	138.745697	-1166.967773	1147.005493	136.396683	-954.678894	1065.294434	161.985306	-956.452637	548.685242	354.407196	-921.258179	463.183868	303.979584	-992.271362	300.186920	333.412750	-1093.521729	126.846451	245.823257	-1131.384644	145.955368	196.081161	-983.597717	54.427032	219.936035	-1048.338623	531.002625	-28.265062	-1066.464233	432.759613	29.693533	-1081.516479	249.419662	-25.275290	-1115.529785	50.402149	83.302414	-1158.580444	42.551102	129.570694	-993.603394	37.850277	117.290848
145	1.44000000	-1040.128296	1272.981201	329.484161	-1028.358887	1263.484619	-49.918308	-1090.383179	1348.913330	133.335175	-977.489014	1257.959106	137.873688	-1105.082886	1002.892517	429.850128	-1080.550049	979.549072	-107.544563	-1004.110870	800.568024	449.548477	-936.400391	797.493988	-127.086781	-988.363281	881.656799	277.302002	-963.838257	872.482483	53.333248	-1164.346924	931.567566	139.448212	-1156.566162	1146.105347	136.077179	-943.898682	1065.382935	161.907715	-941.515991	549.704407	354.657806	-905.579468	464.226532	303.807373	-967.911926	296.404480	333.325928	-1060.155273	118.072815	245.955719	-1099.134033	135.178177	196.236053	-946.058899	52.455471	219.995529	-1044.065430	530.634766	-28.236778	-1063.334106	432.652740	29.825771	-1079.849121	249.511047	-25.016102	-1115.394775	50.665382	83.655762	-1158.410156	42.964947	130.060043	-993.484924	37.752876	117.339783
146	1.45000000	-1031.226318	1272.016968	329.803162	-1017.705322	1262.891602	-49.786758	-1080.306519	1348.098511	133.308212	-967.228577	1257.649536	138.082169	-1098.510620	1002.453674	429.864319	-1065.821167	978.497986	-108.260117	-1000.355804	798.961884	451.506210	-917.694183	799.346863	-125.331696	-976.553833	881.152161	276.835571	-953.293091	871.190002	52.875404	-1153.439819	930.957214	140.309464	-1146.185181	1144.985229	135.820236	-933.089539	1065.188965	161.867966	-927.034790	550.251343	354.968872	-890.575439	464.757263	303.643585	-944.068787	292.646149	333.216370	-1026.298706	109.535889	245.964111	-1066.179199	124.572395	196.172241	-908.384277	50.941193	220.072815	-1039.542114	530.191772	-28.235401	-1059.878174	432.498657	29.949797	-1078.215210	249.582138	-24.838934	-1115.250732	50.942661	83.997124	-1158.269531	43.425396	130.567932	-993.344971	37.639656	117.401825
147	1.46000000	-1022.326538	1270.796509	330.142487	-1007.023315	1262.022095	-49.642395	-1070.183960	1347.076660	133.286438	-956.952881	1257.042236	138.303604	-1091.886353	1001.815430	429.920471	-1051.066284	977.268982	-108.993416	-996.429291	797.293396	453.516190	-899.127472	801.086090	-123.502556	-964.686157	880.400085	276.508026	-942.828064	869.766541	52.497639	-1142.557861	930.118652	141.325714	-1135.818359	1143.678345	135.639740	-922.262512	1064.698364	161.884293	-913.040039	550.291809	355.310760	-876.288574	464.775238	303.456909	-920.919434	288.987244	333.107056	-992.048950	101.383812	245.896759	-1032.601318	114.298164	195.932831	-870.684937	49.993042	220.218140	-1034.645996	529.678528	-28.243389	-1056.048584	432.291687	30.070911	-1076.588745	249.626190	-24.735071	-1115.095703	51.237946	84.319016	-1158.135132	43.931564	131.074997	-993.194214	37.513767	117.477280
148	1.47000000	-1013.373047	1269.343140	330.501373	-996.280945	1260.901001	-49.467304	-1059.993286	1345.869507	133.282959	-946.637573	1256.142700	138.547211	-1085.211182	1000.997009	430.000488	-1036.291504	975.889709	-109.724571	-992.331268	795.566956	455.552856	-880.744324	802.717773	-121.603718	-952.793152	879.415222	276.325104	-932.453796	868.254944	52.207466	-1131.698608	929.072632	142.499680	-1125.458374	1142.218750	135.548157	-911.429871	1063.905151	161.969406	-899.571899	549.792297	355.651581	-862.749817	464.284393	303.216766	-898.609680	285.460968	333.019501	-957.541992	93.762535	245.816544	-998.527588	104.509605	195.582199	-833.108459	49.724899	220.494995	-1029.284912	529.096863	-28.241325	-1051.802246	432.022888	30.200794	-1074.884888	249.634308	-24.670240	-1114.922119	51.557304	84.623154	-1157.983154	44.487804	131.571915	-993.049072	37.383968	117.562141
149	1.48000000	-1004.309326	1267.684937	330.883331	-985.450989	1259.563110	-49.240887	-1049.715576	1344.500122	133.315018	-936.268311	1254.960327	138.819702	-1078.483521	1000.021545	430.090851	-1021.508423	974.394348	-110.433281	-988.063019	793.790070	457.593536	-862.579773	804.249329	-119.642303	-940.903259	878.215271	276.282227	-922.174561	866.691223	52.004040	-1120.858765	927.842712	143.839417	-1115.096802	1140.640137	135.555786	-900.602661	1062.812500	162.130219	-886.677002	548.727478	355.963074	-849.964050	463.292755	302.900574	-877.235779	282.067627	332.973694	-922.961060	86.812988	245.799362	-964.150452	95.351791	195.212326	-795.855408	50.242062	220.966217	-1023.413513	528.449463	-28.211445	-1047.103638	431.682861	30.354656	-1072.978027	249.596222	-24.595692	-1114.722290	51.910316	84.920921	-1157.797852	45.105171	132.060898	-992.917053	37.255558	117.652069
150	1.49000000	-995.082581	1265.852539	331.296387	-974.511353	1258.050903	-48.940746	-1039.336304	1342.992310	133.402115	-925.836853	1253.510864	139.127060	-1071.692871	998.914307	430.185974	-1006.734375	972.822327	-111.099869	-983.624481	791.971527	459.619202	-844.664886	805.691040	-117.625015	-929.020569	876.829102	276.369141	-911.983215	865.105835	51.880604	-1110.031982	926.452759	145.354874	-1104.723755	1138.974487	135.670853	-889.789490	1061.433716	162.367386	-874.405945	547.083862	356.223114	-837.902466	461.814209	302.496796	-856.832886	278.794983	332.988434	-888.543457	80.663483	245.930939	-929.738098	86.954666	194.939209	-759.194397	51.607887	221.670181	-1017.038513	527.741333	-28.141144	-1041.930542	431.265106	30.548393	-1070.730835	249.503723	-24.463373	-1114.490723	52.310001	85.227127	-1157.571533	45.799648	132.549316	-992.791382	37.128387	117.741791
151	1.50000000	-985.645752	1263.878784	331.751068	-963.448486	1256.410889	-48.545284	-1028.846680	1341.370728	133.564285	-915.333069	1251.819580	139.475937	-1064.815552	997.702271	430.289001	-991.992432	971.215759	-111.706558	-979.011322	790.119324	461.614990	-827.028961	807.055176	-115.555927	-917.123779	875.298523	276.571777	-901.859924	863.526184	51.826115	-1099.206909	924.923401	147.052429	-1094.326904	1137.250610	135.900497	-878.995300	1059.792847	162.675903	-862.807922	544.860779	356.414795	-826.499878	459.875854	302.003052	-837.369446	275.643707	333.080627	-854.580688	75.416664	246.294998	-895.630493	79.425766	194.887009	-723.452454	53.823708	222.607040	-1010.210022	526.981201	-28.025826	-1036.278076	430.767151	30.794678	-1068.031250	249.354813	-24.238930	-1114.224121	52.770466	85.552345	-1157.301758	46.589870	133.042130	-992.659180	37.000843	117.826553
152	1.51000000	-975.958923	1261.796875	332.258331	-952.260315	1254.691406	-48.035873	-1018.244446	1339.660400	133.821426	-904.744080	1249.920776	139.872894	-1057.812500	996.414124	430.411957	-977.309998	969.617065	-112.237823	-974.211914	788.240417	463.571609	-809.696442	808.356018	-113.437851	-905.184753	873.671204	276.870941	-891.774475	861.976929	51.826057	-1088.364502	923.271484	148.929260	-1083.890137	1135.493652	136.251389	-868.218933	1057.925049	163.047073	-851.920105	542.074890	356.523712	-815.656860	457.529999	301.423615	-818.751343	272.648529	333.263916	-821.409058	71.137512	246.953842	-862.222473	72.843536	195.165268	-688.983582	56.829159	223.746201	-1003.005859	526.183167	-27.869541	-1030.161743	430.190735	31.097940	-1064.825317	249.156296	-23.909435	-1113.918213	53.304520	85.899498	-1156.989380	47.496082	133.537323	-992.512512	36.873501	117.905762
153	1.52000000	-965.991638	1259.641479	332.829895	-940.956787	1252.939819	-47.397614	-1007.533264	1337.887329	134.192642	-894.058838	1247.856079	140.324234	-1050.631348	995.078918	430.574829	-962.718323	968.066528	-112.679657	-969.204926	786.342621	465.486938	-792.687134	809.609589	-111.275120	-893.184326	871.990417	277.243286	-881.691528	860.476746	51.864311	-1077.479858	921.512085	150.970444	-1073.394287	1133.725220	136.729416	-857.450989	1055.873901	163.469940	-841.750305	538.772095	356.535004	-805.244019	454.866028	300.769623	-800.838440	269.883148	333.544525	-789.393738	67.844498	247.928589	-829.935852	67.249146	195.842346	-656.136536	60.504295	225.041122	-995.512329	525.364746	-27.681643	-1023.613281	429.542175	31.451956	-1061.129395	248.923065	-23.484421	-1113.566772	53.924549	86.263794	-1156.635742	48.539463	134.025024	-992.349731	36.748337	117.982719
154	1.53000000	-955.725525	1257.448242	333.479614	-929.559082	1251.200562	-46.620834	-996.722656	1336.080444	134.695511	-883.272278	1245.673340	140.837051	-1043.210693	993.724060	430.802551	-948.252869	966.600159	-113.019554	-963.958862	784.435883	467.366364	-776.020325	810.834351	-109.073990	-881.115112	870.290527	277.664642	-871.575317	859.034302	51.926231	-1066.525757	919.660950	153.148697	-1062.818237	1131.964355	137.339859	-846.672974	1053.691772	163.932632	-832.256714	535.042419	356.431549	-795.111267	452.013916	300.060883	-783.469971	267.444336	333.916412	-758.909668	65.499512	249.187576	-799.185730	62.635742	196.919678	-625.234192	64.668289	226.435989	-987.805115	524.542908	-27.470623	-1016.672241	428.831909	31.842041	-1057.015991	248.675964	-22.989935	-1113.161743	54.646259	86.633400	-1156.241455	49.741844	134.488510	-992.170837	36.626762	118.060448
